<mxfile host="65bd71144e">
    <diagram id="mrt_u7FlYnsl1UTaWsnF" name="Page-1">
        <mxGraphModel dx="1322" dy="658" grid="1" gridSize="10" guides="1" tooltips="1" connect="1" arrows="1" fold="1" page="1" pageScale="1" pageWidth="850" pageHeight="1100" math="0" shadow="0">
            <root>
                <mxCell id="0"/>
                <mxCell id="1" parent="0"/>
                <mxCell id="2" value="http://ics2o.mths.ca" style="swimlane;whiteSpace=wrap;html=1;" vertex="1" parent="1">
                    <mxGeometry x="40" y="40" width="872" height="532" as="geometry"/>
                </mxCell>
                <mxCell id="3" value="&lt;font style=&quot;font-size: 36px;&quot;&gt;A Random Useless Fact, in JS&lt;/font&gt;" style="text;html=1;align=center;verticalAlign=middle;resizable=0;points=[];autosize=1;strokeColor=none;fillColor=none;" vertex="1" parent="2">
                    <mxGeometry x="130" y="40" width="510" height="60" as="geometry"/>
                </mxCell>
                <mxCell id="7" value="&lt;font style=&quot;font-size: 18px;&quot;&gt;Click for a random fact!&lt;/font&gt;" style="rounded=1;whiteSpace=wrap;html=1;" vertex="1" parent="2">
                    <mxGeometry x="30" y="380" width="215" height="60" as="geometry"/>
                </mxCell>
                <mxCell id="8" value="" style="shape=image;verticalLabelPosition=bottom;labelBackgroundColor=default;verticalAlign=top;aspect=fixed;imageAspect=0;image=data:image/png,iVBORw0KGgoAAAANSUhEUgAAAgAAAAIACAYAAAD0eNT6AAAABHNCSVQICAgIfAhkiAAAAAlwSFlzAAAOxAAADsQBlSsOGwAAABl0RVh0U29mdHdhcmUAd3d3Lmlua3NjYXBlLm9yZ5vuPBoAACAASURBVHic7N13eFRFFwfg34ZN75CEFgg1SAcFqdJRQOkdQXoTP+kogoAFsSAIgiBNWkJHAaWDBEVEQIo0AWEDgRBKet/N7vfH0gnJ7sy9O/fePe/z+KhkZ+aQNmfnzpzRQXtcAdQG0ARAFQDlAJQCoAcQAEAHIB1A1v3XmwEkPdY+DUD2/f/OAZD82MdSARjv/7cJQMpjH0u5/2e4/5rUxz6WfL8v3O877bGPJd2PAfdjSn/sY4kALPf/OxNAxmMfSwAhhBDCSCc6AIm4AGgMoB+ATgB8hEbjeBmwJggAJTSEEEJsoPYEwAXA6wA+AlBTcCxEeo8nCU8nDCwfk6IPez72ePJFCCGKouYE4GUAiwBUFx0IIfl4fIXGAutKyANSPI6iFRpCiN3UmAC4AvgMwGgABQTHQogzkjuhYX0cRQkNIXZQWwIQBGAdgGaiAyGEaI4jHxfRIycinJoSgDAAvwIoLToQQghRMKWu0LA+jiIyUUsCUBLAAdDkTwghziavxzdynIBKBBAP4DaA8/f/rUlqSAB8ARwGUFl0IIQQQpxOHIBDALYD+AXALbHhSEfpCYALgE0AOogOhBBCiNMzAdgGYCGA3YJj4ab0BGAEgHmigyCEEEKe8heA92Hdm6ZKSk4AigE4B8BfdCCEEELIc2wAMBzAPdGB2MtFdAB5+Bo0+RNCCFG2rgBOAXhFdCD2UuoKQCUA/0DZCQohhBDyQDaAIQBWiA7EVkqtpDcbVOKXEEKIehSAdcN6IoAjgmOxiRJXAPwBxALw5O0oNDQUPXv0wBuvv46wsDAEBQVBr9cjLS0N2UbrEVBzTg6Skx8dD01NS4Px/sdyTCakpDw6HpqSmgqTyVrvIjs7G+npj+pWJCUlwWy21rTIyspCRsajY6uJiYmwWKw1LTKzspD52McSEh/V6MjIyEBWpvVIq8ViQWLSoyOt6enpyM6y1u8wm81ISn78SCshhBCFsAAYCmCx6EDyo8QEYDCsl/ww0+v1+GDiRIweNQqentx5hOLlldA8nrSYjEakpj4q0pWckoKcHGuRLpEJTY7Z/ETMhBCicjkAXgWwX3QgeVFiArAFQDvWxl5eXoiMiECr116TMCTiSKmpqTDeT1ryWoWRO6GxZxUmLS0Nxmxr0TFKaAghsFYQfBHADdGBPI/SEoACAO4CCGDtYMXy5ejerZt0EREikYyMDGTeTyAyMzKQeX91JCMz8+F/2/Sx+31kPPY6AMh87LVPfywjM/PhaszjcTz4/6znjPf4xx5/PEYIsckOAG1EB/E8SksAagA4wdr4zTffxNLFin/sQoiq2bpCY8zORlrao7tfkpKTH67CZGdlIf15qzBPJSEJCY9Kvz+eyNAKDVGJzgA2iw4iN0pLALrBet2v3VxcXHDqxAmUL19e4pAIIVqWkpIC0/1HR3k9VhKZ0OTk5CD5sUQrNTUVpvurMaacnCeSMKI4/wF4AY9uTFQMvegAnsI8e9evX58mf0KI3Xx9fZ/4/+DgYEGRSENkQpOekWHbKoxzJTRlAXQHECE6kKcpLQEIYm34cu3aUsZBCCGqRAmN1eMJTVZmJpJTUh7ufUl6bKXl8YQmJycHt27dQnR0NP7555+H7SUwDpQA5Iv5zF6pUqUkDIMQQogSSJnQJCQl2byR9fbt29iwYQPmzZv3RGLBqAaAqrBWuFUMpZXadWNt+GDjESGEEJIbby8vm18bEhKCESNGYP/+/XjxxRelGL6XFJ1ISWkJQGL+L8kd7eolhBCSFzdXV7i42DftFS1aFBEREahTpw7v8K/ydiA1pSUA8awNr1+/LmUchBBCNMjD3d3uNt7e3liwYAGCgpi3qQHW+22Ya9zIQWkJQCxrQ0N0tJRxEEII0SBXV1emdkFBQRg/fjzP0AVg3QugGEpLAJhn8WvXrkkZByGEEA1y1bPvfe/YsSMCAwN5hi/L01hqSksADKwNr127JuWRDUIIIRrk4uICnY6tBp6HhwdeeeUVnuFL8zSWmtISgGsAmGbxrKwsxMXFSRwOIYQQrWFNAACgcuXKPEP75v8Sx1FaApAN4CZr42jaB0AIIURG3t7ePM3t34EoI6UlAADHYwDaCEgIISQ/D8oas+C8EZN9YBloKgGgFQBCCCF5sVgsXAnA7du3eYa/y9NYapQAEEIIcRoP7g5gxXnijLnWjRyUmACwHwWkYkCEEELyYOZ49w9wF51T1Hl1JSYABtaGtAJACCEkL7wrAJwJwFWuwSWmqQSAagEQQgjJC08CkJqaioSEBJ7hKQHIB9UCIIQQIgueBIDz3X8SAK7sQWpKTACoFgAhhBBZ8KwSa2n5H1BmAgBwbASMpjsBCCGEPIfAFQBKAGxkYG1IKwCEEEJyY7ZYuE4BcB4BpATARgbWhnQrICGEkNzwbhKnFQDHYH8EQCsAhBBCckFHAJ+k1ATAwNqQ9gAQQgjJDW8CEBMTw9OcEgAbGVgbXrt2javOMyGEEG3iSQDu3buHtLQ0nuEVtzyt1AQgGoy1ADIzM6kWACGEkGcIPAIYB4Are5CDUhOAbACxrI1pHwAhhJCn5VANgCcoNQEAOB4DGCgBIIQQ8hSqAfAkvegA8mAA0IClIa0AECWLiYlBdHQ0cnJyUKxYMZQrV050SDaJjY3F1atXYTQaUbRoUYSHhzs8BrPZjJiYGGRkZKBwkSII8Pd3eAwsYmJiYDAYYDKZULx4cZQvX150SE7HbDZz7Q/TWg0AQPkJABOqBaAev/76K7Zs3YoL//6L5KQkh43r4emJ0qVLo3WrVmjfrh1cXV1lHc9sNmP9hg2YNWsWTv/zzxMfK1WqFIYPG4ZhQ4fC3d1d1jjsZbFY8ONPP2HmzJn4+8SJJz5WokQJDBk8GCPefhteXl6yxnHhwgV8PXs2tm3disT73yc6nQ5VKldG//79MWjgQLi5uckag73MZjPWrV+P2bNnP/M1DwsLw9vDh2PokCHw8PAQFKFzoRoAz9KJDiAPgwEsYmnYskULbNu6VeJwiJSuXLmCQUOG4I8//hAdCsqUKYOF332HRo0aydJ/amoq+g8YgG0//5zn62rWqIGNGzagePHissRhr4yMDAwZOhQbNm7M83WVK1XCpo0bUapUKVnimPvtt5g0eTKMRuNzX1OlcmVs3LBBthjslZqair79+uGX7dvzfJ3SvuZalpmVheSUFOb2jRo1gsFgYG3eAsA+5sFlouQEoCWA3SwNw8PDcfrkSYnDIVI5c/YsXn3tNcTHx4sO5SFXV1cs/+EHdO7USdJ+zWYzunbrlu9E8ECFChVwMCoK/n5+ksZhL4vFgr79+mH9hg02vT4sLAyHfvsNQUFBksYxZ+5cvPf++za9NjQ0FId++w2FCxeWNAZ75eTkoFPnzti127ZfXxUrVkTUr7/CT/DXXOvS0tORlp7O1NZsNiM8PBzZ2dmsw5cFcIW1sVw0uQmQagEoV2pqKrp07aqoyR8AjEYjBg0ejPPnz0va79Jly2ye/AHg33//xUcffSRpDCzWrl1r8+QPWPfdfDB5sqQxnDl7FpM//NDm18fExKBv//7cS728li5bZvPkDwDnz5/HNAV8zbWOZwPgrVu3eCb/HABczw/kouQEgGoBaNC38+bxLKPJKiMjw64JJz8WiwVffvWV3e2WLF2Ke/fuSRYHiy8Y4o6IiOCtlPZkDF98keeyf24OHDiA7xYskCwGe7F+zRcvWaK4pFhreC4B4nz+HwPAvm9kB1FyAkC1ADQoIjJSdAh52rFzp2TJ46nTp5l+cWRnZ2PXrl2SxMDi8uXLuHDhgt3tcnJysH3HDkliyM7Otmvl5HEfTpnCFL8UTpw8yZQEGY1GoV9zZ0BHAJ+l5AQAoFoAmhIbG4vLly+LDiNPZrMZfx45IklfFy9eZG976ZIkMTh6bJ6/8+P+++8/pDM+r83IyMCAgQPtXj2QAs/3t8ivuTMQWAWQEgBGBtaGtAKgPLdU8lhGqhWAJI5jjSKXg5MSE5nbxickSBMD55HQv0+cwIzPP5ckFnvwxC36sY+WUQ2A3Gk2AaBaAMpjZN9E41BS7cZW60ZUJcQtRQxffvUVjh49KkE0ttPp2A9Wid68qGV0DXDulJ4AML+NpwSAsKpUqZLoEIgETCYT+vbvj9TUVIeN6eLC/iuVd5Iiz0cJQO6UngAwf+KiKQEgDMqWLYtqVauKDoNI5MqVK5Ke7MhPAY4EgGeXOskbzyVARqOR97GggaexnJSeADCvAKRwVHwizmvypEmiQyAS+37RIrvO5fOgFQBl4kkAYmJieB7PZILjNJvclJ4AXANgYmlI9bWJvXr27ImePXqIDoNIzGKxYNjw4ZJtUMxLgQIFmNvSHgD5CDwCeA2M9WwcQekJQBaA0ywNq1apInEoRMsGDxqERQsXig6DyCQ2NhajR4+WfRwdzyMAWgGQDU8CwFncSrHP/wHlJwAAsJmlUefOnaWOg2iMh4cHXm/TBvv27MG3c+fKfiMgEWvd+vV2lTdmQSsAymOxWLg+t1o9Aggo+zrgBxYAGAkg2NYGlStVQscOHeSLiDhclcqVsWgR0+WQuSpUsCCKFCmiuOt3ibzeffdd1K9XD6GhobL0T3sAlIeuAX4+NSQA8QD6AtgCIN+3aH5+fli6dCm9m9MYL29vvFizpugwiMolJiVh6PDh+HnrVq4z+89DKwDKQ0cAn08NjwAAYAeATgDy3MVTokQJ/Lx1K2pUr+6YqAghqrNv3z4sXrJElr5pBUB5eE4AAJQAKMXPACoCmImnjlWUKVMGU6dMwdG//sLLL78sJDhCiHq8P3EiLslQe58nAaAVAHnwfF7T0tJ4SzQrOgFQwyOAx8UBGH//nxAAPmfPnPmwbJky/YRGRQhRlfT0dPTt1w9RBw5I+riQHgEoj8ATACkAFH3Bg5pWAJ52G8CVcmXKiLn3kxCian+fOIGZX38taZ/0CEB5eD6vWj4BAKg7AXjAIDoAQog6Tf/sMxw7flyy/mgFQHlM4ooAUQIgtxxKAAghjEwmEwYNHoyMjAxJ+nPhOFnAu1mNPMtisdA1wHlQfQJgNpsNomMghKjXhQsXMHXaNEn6ohUAZeFNqrRcBRDQQALg4+MTByBNdByEEPWaN38+Dhw4wN0P7QFQFqoBkDfVJwAAAIuF7v4lhDAzm80YOHgwEhITufqhFQBloQQgb9pIAFxcDKJDIISo240bNzB+wgSuPmgFQFl4kqqEhASkpqbyDG/gaewI2kgAVPCJJoQo3+rVq7FpM9P9YwBoBUBpBF4DfAcAV/bgCJpIAHQWS7ToGAgh2vDuyJGIi4tjakvXASuLwARA8cv/gEYSANAKACFEIvfu3cOgwYOZjo/RCoCymOkIYJ40kQBQLQBCiJT27N2LFStW2N2O9gAoh8Vi4UqqaAVAJagWACHkgaJFi8Ld3Z27n/HvvQeDwWBXG54VAEoApMVTARBwjgRAbZcB5crb2/t2VkZGOgAv0bEQeVy/fh2TP/yQux9vb29UqFABzZs3h7+fnwSREaUpVaoU/vfOO/hg0iSuflJSUtB/4EDs3b3b5omdbgNUDjoCmD9NJAA6nc6SmZYWDZ2uouhYiDxiY2MlvbjFw8MDw4YOxeRJk+Dj4yNZv0QZRo0ciZ27duHgwYNc/Rw+fBjfzJmDsWPG2PR6nlLAPM+rybN4EiqLxYIbN27wDK+KBEATjwAAUC0AYpfMzEx8M2cOmjRtitjYWNHhEIm5uLhg8fffw0+CVZ6PP/kE/5w5Y9Nr6RGAcvB8PuPi4pCVlcXa3AyAa/nAUbSTANBGQMLgzNmz6NK1K88PO1GosLAwfPn559z9ZGVloW/fvsjMzMz3tfQIQDkEHgG8AUAVv1A0kwBQLQDC6vjff+P7RYtEh0Fk0K9fP3Ts0IG7n3Pnz+PT6dPzfR2tACgHz0VAzvD8H9BQAgBaASAc5s2fz3VtKFGub+fORUhICHc/s2bPxm+//Zbna2gFQDl4Pp/OUAMA0FACkAPQCgBhdu3aNVy8eFF0GEQGQUFBmD9vHnc/ZrMZg4cORUpKynNfQysAymA2m7kSeloBUI9AAO8GBwdPeqVxYzRt3hzv/O9/2L1nD2XUxC7X+H7oiYK1feMN9OnTh7sfg8GA995//7kfpxUAZeBNpmJiYniaG7gGdyA1JwA6AO8AuAZgTlpa2htHjx7F4cOHsWTpUrRr3x4NGja0efcuIXqOd29E+b7+6iuULFmSu59lP/yA7Tt25PoxWgFQBt5kih4BKN8cAN8CeO4h7hMnT6J5ixY4fPiw46IiqlWqVCnRIRAZ+fn5YfmyZVyT9ANDhg7F7du3n/lzWgFQBp4qgCaTCbdu3eIZnhIAmQ0A8D9bXpicnIwevXrhzp07ModE1KxChQooXbq06DCIzOrXr493Rozg7ufu3bsY8c47z/w512VAtAIgGZ4TADdu3OBZjcmG9RigKqgxAfAE8KU9DeLi4vDVzJkyhUO0YMyoUaJDIA7y8UcfoUrlytz9bPv5Z0RGRj7xZ1zXAdMKgGQE1gCIhrUQkCqoMQHoAKCQvY1WrlxJz9hIrpo3b47evXuLDoM4iLu7O5YsWQI3NzfuvkaPGfPE8+ICPLcBUgIgGToCaBs1JgB1WRolJiXhzNmzUsdCVK5Ro0aIWL1akufCRD1qVK+ODyZO5O4nKTkZ/QcOfDjh0B4AZeB5s+csJwAAdSYARVgb0jlv8kBwcDC++Pxz/LJtGwL8/UWHQwSYMH48GjRowN3PoUOHMP+77wDQKQAloFsAbafG2wDzL8j9HNHRVCtIrUqUKIGhQ4Zw91M4JARly5ZFnTp16F2/k3NxccGSRYvwct26eRb3scXkDz9Es2bNUK5sWeY+aAVAGpQA2E6NCQDzDkvOZztEoKJFi2Lc2LGiwyAaU7p0aUz/9FO8O3IkVz9ZWVkYOHAg9u/bx9wHJQDS4P08cr5RvMI1uIOp8REA81eHVgAIIU8bPGgQWr32Gnc/J0+dwpdffcXcnh4BSINnM2V6ejri4+N5hlfVCoAaEwADa8NoWgEghDxFp9NhwXffoWBgIHdfM7/+mrmtxWKhVQAJ8G4A5LhDIBXAXebBBXCuBCA6mm58I4Q8o2jRoliwYAF3PyaTias9/X7ix1MF0Jme/wPqTACiATD9lGRkZFBFQOIwOp2OuS1NBI7Xvl079OjeXWgM9BiAH9UAsJ0aE4BMAMyFmmkfAHEUL09P5rbZRqOEkdgnI5P5oA3X31kJ5syZgxIlSggbnx4B8OF9jEIrAOpgYG5ICQBxED+O+gL37op7lBgXF8fc1tfXV8JIHM/fzw/fL1jAtXrDg1YA+NARQPuoNQGgkwBE8fz9/JjbXvj3Xwkjsc+5c+eY2/px/J2VolmzZhg2dKiQsWkFgI+Z89EZJQDqYGBtSLUAiKMEBQczt718+bKQZNVkMmH//v3M7cuUKSNhNOLM+OwzVKpY0eHj0n0AfGgFwD5qTQBoBYAoXnj58vDw8GBu/8Py5dIFY6ONmzYhPiGBuX1FAZOmHDw8PLB06VK4uro6dFxaAeDDkwAkJibyVoQ08DQWQa0JgIG1IdUCII6i1+u53kUuWLAAN2/elDCivGVmZmLG558zty9QoADKlysnYURi1axRAxPGj3fomGbaA8BF4DXAdwHw1ZMWwPkSAKoFQByoevXqzG2TkpMxdNgwh20Mm/jBB/iXY+9BrVq14KnyUwBPm/j++6hdq5bDxqMVAD50AsA+ak4AmGsB3BW4w5o4l1atWnG137N3L94dOVL2pHXW7NlYsHAhVx9tWreWKBrl0Ov1WLJ4scMSGzoFwIfn8+dsNQAA9SYAmQCYzyrRUUDiKK+2bMl9NG7psmUYNGQIsrOzJYrqEbPZjE+nT8cHkyZx99WmTRsJIlKeChUq4NNPPnHIWLQCwM5ssXCdAqAVAHUxsDakjYDEUTw9PSV5ZxwREYFWbdpIeorl9u3baNehAz6dPp27r6pVqqBqlSoSRKVMbw8fjldbtpR9HFoBYMebPHEmAAauwQWhBIAQmUl1pvyPP/5A7ZdfxooVK7h+2RmNRsyZOxfVqlfH3r17JYlt9KhRkvSjVDqdDgsXLEBgQICs49AKADs6Amg/p0wAqBYAcaR69eqhWbNmkvSVlJyMocOHo179+tj28892XT6TmpqKRYsXo+ZLL+G9999HYlKSJDGFhoaia9eukvSlZMWKFcMsjtv+bEErAOx4PncWiwUxMTE8w6syAdCLDoAD1QIgqvHhpElcBXaedur0aXTt1g3BwcFo17YtXq5dG1WrVUNwUBB8fH1hMZuRkJAAg8GAc+fP49dff8WBqCikp6dLFsMDY8eMcfh5eVF69uyJX7Zvx8ZNm2Tpn1YA2PEkALdv30ZWVhZrcwsAVb6rVHMCYGBtSLUAiKPVq1cPPXv2xJo1ayTt986dO1i6bBmWLlsmab+2qlypEgYNHChkbFHmzpmD3w8dwq1bzHeSPRetALATeATwJqwb01XHKR8BGAwGqgVAHG72rFkoXry46DAk4+bmhkWLFjnNu/8HChYsiCWLFslyYRBvLXtnxlNG2Rmf/wPqTgCiQbUAiIoE+Pvj+wUL4OKi5h+7R6ZOmYKXXnxRdBhCtGjRAgP695e8X1oBYCewCiAlAAJkgGoBEJVp0aIFZs+aJToMbp07dcKY0aNFhyHUl198gXISlz6mPQBszGYz16ouJQDqZGBtSBsBiShDhwxR9bG5xo0bY+mSJbIsgauJt7c3li5ejAIFCkjWJ60AsBFcA4ASAEEMrA0pASAifTZ9Ovr16yc6DLs1aNAAmzdu5LrlUEvq1KmDsWPGSNafs+2nkIqJM3FyxjLAgBMnAFQLgIik0+mw8Lvv8Oknn6jmnXT7du2wbcsWeHt7iw5FUSZPmoTq1apJ0ldQoUKS9ONseFZOTCYT74kOSgAEoVoAKlJAz37qVM/RVsnGjR2LBfPnK/rvp9PpMH7cOKyJjISXl5dDxuT5fDj6c+nm5oalS5fC3d2dq5+goCAUKVJEoqicC08CEBsba1dBracYAdxgHlwwtScABtaGVAvA8UKCg5nbFilcWMJIlKVfv37Yt2cPypQpIzqUZxQqVAg/bt6MTz7+2KGnF4I5vlcKh4RIGIltqlSujGlTp3L10bJlS9WsBimNwEuArgFQ7cYN500AoqOpFoCDhYaGMp+Dr+XAO9lFqFOnDo4cPoyBAwaIDuWhNq1b4+iRI2j12msOH7tkyZIIYZzIRX2vjHz3XTRs2JC5/ZBBgySMxrnQNcBs1J4AMNcCSE9Pp1oADqbT6dClc2e727m6uqJzp04yRKQsvr6+mD9vHjasX4+wsDBhcVSsWBFbt2zB5k2bUKxYMSExuLi4oBvD/QJubm7CvldcXFywdPFiFCxY0O62nTt1Qr169WSIyjkIrAJICYBAGQBuszamWgCON37cOBQMDLSrzbChQ4VOiI7W9o03cPLvv/HRtGl2f654lCpVCt/Nn49jf/3lkKtv8zNh/Hi7b997e/hwlChRQqaI8hcWFoY1ERF27ZWoVLEivvvuOxmj0jaqAcBO7QkAQCcBVCUoKAgRq1fbvGGqfv36+PSTT2SOSnk8PT3x3oQJ+PfCBXw+Y4bkBWce16RJE6xftw5n//kHA/r3l/RcO4+QkBCsXrUKbm5uNr3+lVdewccffSRzVPlr3Lgxdm7fjlKlSuX72mbNmmHvnj3w9/OTPzCNomuA2Tl1AkAnAcRo2rQpdu3YgZIlSz73NTqdDn369MEv27Zx765WM19fX4waORL/nDqFfXv2YMTbb9s0seTF1dUVTZs2xZdffIGz//yDndu3o13btoqZ+B/XvHlz7Ny+Pc939TqdDn379sW2LVtsThbk9vLLL+P40aP4bPp0VKhQ4YmP6fV6NGjQABGrV+OXbduYHhmQR3gTAGfeA6CFLaefA3iPpeGwoUPxzezZEodDbJWVlYXVERHYsmULzp47h4yMDBQpXBgNGzZE3759nbbOvC1iYmJw+M8/cebMGVy+fBl3791DQnw8EhITkZqSAp2LC/z9/eHv54eAwECEly+PKlWqoOILL6BGjRrw9fUV/VewS2ZmJlatXo2tW7fi3PnzD79XXnnlFfTt2xcv1qwpOsQ83b17Fzdu3oRer0epsDCqpSChtPR0pDFec52ZmYkKFSrwPEIoDI7H0KJpIQEYDoDpAVrrVq3w4+bNEodDCCHEUZJTU5GZyXYb7+XLl9GsWTPWodMA+IJxI7oS0CMAQgghqiXwCKABKp78AWdPAGgTICGEqBpdA8xOKwkAUxaWlpZGtQAIIUSlLBYL1QDgoIUEgGoBEEKIE6JrgPloIQEAaB8AIYQ4HToCyIcSAEoACCFElXJoBYCL0ycAVA2QEELUiecRQEpKCpKTk3mGN/A0VgKtJADMb+NpBYAQQtRJ4BHAeABJPB0ogVYSAANrQ0oACCFEnegaYD6UANAjAEIIUSUT1QDgoqUEgGoBEEKIk7BYLHQNMCetJABUC4AQQpwInQDgp5UEAKB9AIQQ4jSoBgA/SgBACQAhhKgNTwJgsVhw48YNnuEpAVAY5lmcagEQQoi68NQAuHv3LjIyMlibW8Ax3ygJJQCgBIAQQtRG4BHAWACZPB0ohZYSAANrQ3oEQAgh6kLXAPPTiw5AQgbmhhpNAK5fv46Tp07h9m3mAxJ2c3N1RbFixVCvXj14eXk5bFxHyMzMxJatW7Fj506c+ecfpKalwdPTExVfeAEtW7ZE506d4OfnJzpM1UpNTcW/Fy/i0qVLuHj/3/fi45GSnIzUtDSkp6fDxcUFer0evj4+KFioEIoVK4YSoaEIDw9HtapVUb58eej1yv+1dvPmTaxctQr79u/HjRs3kBAfLzqkJ7h7eKBokSJ46aWX0KN7dzRs2FB0SM8w0xFAbjrRAUjIE0AaGP9OEvZkGQAAIABJREFUN65fR6FChaSNSJDff/8dH06disOHDwuLwdPTE2/26oUPJ09G4cKFhcUhlR9/+gnjxo/Pc+NQwcBATJ06FUMGD4ZOp6UfLXlkZmbi8OHDiDp4EAeionDs2DGYTCauPj09PVGnTh00a9oUzZo1w0svvqi4r8Xsb77BJ59+ivT0dNGh2Kx1q1ZYsnixYn5HWiwW3Ll3j7n9hAkTsHbtWtbmnwCYwjy4gijrJ4NfHIAQloaHfv8dL734osThON5XM2di6rRp3PdkS6Vw4cLYuGEDateqJToUZh9OmYKvZs60+fU9unfH0iVLUKBAARmjUieLxYI///wTq1avxubNm5GYJG859ZIlS6JL587o0aMHqlWtKutYthgzdiy+W7BAdBhMypYti6hff0VQUJDoUGA0mZCQmMjcvkePHvjjjz9Ymw8A8APz4AqipT0AgJPvA1iydCk+nDJFMZM/AMTFxaFDx44wGAyiQ2Ey+5tv7Jr8AWDtunUYPWaMTBGpU3p6OuZ/9x0qV62Kps2bY9kPP8g++QPWzV6zZs/Gy3XqoGnz5ti4aRP3KgOryMhI1U7+APDff/+hb//+osMAwF8DgB4BWFECcJ/aE4Bbt27hvfffFx1Gru7du4dRo0eLDsNuZ8+dw5SpU5naLlq8GLv37JE4IvVJTk7GVzNnokLFihg7bhyuXLkiLJbDhw+jd58+qFq9OiIjIx2aKGdnZ2PyFPWvGu/bt08R39c8X7ucnBzExsbyDE8JgEIZWBuq/Sjgwu+/R1pamugwnmvnrl04d/686DDsMmPGDBiNRub206ZNky4YlbFYLFi5ciUqVamCD6dMwZ07d0SH9NDVq1cxYNAg1KpdG/v27XPImAeionDz5k2HjCW3yMhI0SFwrQDExsbyrAKZAHBVEFISrSUAzG/j1b4CsGPHDtEh5EsNMT5w584dbNm6lauPv0+cwLHjxyWKSD3+OXMGzVq0wJBhwxR90da58+fxetu26NS5s+yT819//SVr/47055EjokMQWQPgOqxJgCZoLQEwsDZUewJw5aryV6VELv/aa3VEBNe7/wdWrVolQTTqYLFY8PWsWahXv77QEyj22r5jB+rUqydrzEpaAeGlhL8Lz0VA9Pz/EUoAHjRUeQKQkpIiOoR88dzd7WgRERGS9LN27VqekqOqER8fj06dO2PS5MnCNtnxuHPnDlq//jr+PnFClv4DAgJk6VeEwMBA0SFw7QGgBOARLSYATNUh0tLScI/jXCnJX4nQUNEh2OTo0aM4c/asJH0lJSfj519+kaQvpTp1+jRq16mDHTt3ig6FS2ZmJvoPGMC9wzw3VRVwBFEqVatUETq+2WyGhYoASUJrCUA6AOb1KbWvAijdqy1big7BJitWrpS0Py0/Bvjtt9/w6quv8t6sphj//vsvNm3eLHm/r7ZsqZkqkV06dxY6Ph0BlI7WEgDAifcBKFmtl15C7dq1RYeRr4yMDGzcuFHSPvfu24eYmBhJ+1SCLVu3om379khKThYdiqS2cm7+zI2fnx/GqPAo7NMqVqyI7t27C42B9/gmJQCPUALwGEoA5OHh4YFvvvlGcSVZc/PTli2SF6gxm81Yw152VJF+2b4db/bujcxMTVyK9oTzMh1XHTd2LJo3by5L347g5+eHiNWrhd+1wLOXKCsri3cTIyUACmdgbaj2WgBK5OHhgR+WLUOtl14SHYpNVsq0XL9y1Squ55ZKcujQIfTu00eVm/1skSZTjX69Xo+N69ejR48esvQvpzJlymDf3r2oVLGi6FC4TgDExMTwrCBkwFpuXjO0mAA4bS0ApWnQoAEO/PorOnboIDoUm1y7dg1RUVGy9H3p0iUcUcD5aV5nzp5F5y5dNH2yoUiRIrL17enpieXLlmH3zp3o1LEj/BW8L0Cv16N27dr4euZMnDh+XPjmvwcEXgNsAOMmc6VS/r2Z9jOwNnTWBGDggAGS9eXt7Y2SJUuiadOmqFypkmT9OsLKVatkLQ+7ctUq1K1bV7b+5ZaYlISu3brJXsO/UKFCeKVhQ1StWhXh4eEoFRYGHx8feHp6wmQyISEhAffi4xF/7x5OnDyJI3/9hZMnTyI7O1uS8Rs3aiRJP3lp1KgRGt0fJzU1FUYbV1PWrFmDMWPHMo3Zs2dPzPr6a5tf7+/nBxcX5b1HpCOA0qEE4DHX+L45VGv+vHmiQxDOYrEgQuYSpxs3bcLMr76Cl5eXrOPIZfjw4bgqU8Gp0NBQ9OzRA507d0a1qlVtnnh69eoF4NHVwitXr8ZPP/3EvEKh1+vRp3dvprasfHx8bH6tl6cn8zju7u4I1EA9AoErAJpLAJSX3vEzsDZMSUlBfHy8hKEQtThw4IBsk9sDycnJ2LJli6xjyGXBwoX48aefJO+3dq1a2LB+PS5euIBPPv4YNapXZ3rX6eHhgaZNm+KHpUtx9coVfDN7NkqUKGF3PyPefhvlypWzux1xDN4jgJz7vCgBUAGqBUDstsJBZ/VXrl7tkHGkdOXKFUz84ANJ+yxdujQ2b9qE3w4eRNs33pB0qTnA3x/Dhg7F6ZMnMeXDD+Ht7W1Tu9fbtMH0Tz+VLA4iPaoBIC0tJgAA7QMgdkhKTpbl7HduDhw4AIPB4JCxpDJ6zBjJjvu5uLhg/Lhx+PvYMbRp3VqSPp/H09MTH0yciNMnT6J3797PTTK8vLwwedIkrF+3TvgRN5I3qgEgLa1+txsAMFWdoQTA+WzYsAHpMh39eprFYkHkmjX4YOJEh4zH66ctW7Br925J+goODsbyZcscfha+ePHiWLJoESaMG4cff/oJp06dQlJyMoKDg1Gvbl107NABISEhDo2JsOE5ApiamorExESe4SkBUAkDa0OqBeB8pC79m5+Vq1Zh4vvvK74wUnZ2Nia8954kfZUvXx4/b92KsLAwSfpjER4ejvcmTBA2PuEn8BrgJABc2YMSafURANUCIDa5ePEijh496tAxDQYDfv/9d4eOySIiMlKShLh6tWrYv3ev0MmfaANPFUDO5X/13GVuB60mAAbWhpQAOJcfli8XMq7SNwPm5OTg61mzuPspU6YMtm7ZguDgYAmiIs6OagBIixKAp0TTIwCnYTKZELlmjZCxN2/ejJSUFCFj22LDxo24fPkyVx8FAwPxy7ZtKFy4sERREWdmsVgoAZAYJQBPoVoAzmPHzp2IixNT2jstLQ0/yXCuXioLv/+eq71Op8PChQtRunRpiSIizo5qAEhPqwlAGqgWAMnHSs7Nfz179uRq76jaA/b677//uO8tGDpkCNq1bStRRIQAZs7LtGgF4FlaTQAA2gdA8nDnzh3s3LWLub2fnx++nTMHoaGhzH0cOnQIV64ob29RRGQk182FhQsXxrRp06QLiBDwrwDcuHGDpzklACpjYG1ICYD2RURGwmg0Mrfv1rUrfHx88Ob9WvQsLBYLVkdEMLeXC+++iBnTpyPA31+iaAix4kkA7t69i7S0NNbmFnCcLFMySgByQbUAtC+Cc+Lt+9ZbAIA+vXtznedfsXIl9zsbKV28eJGrUmGZMmXQrVs36QIi5D6BlwDFwVpiXnO0nABQLQCSq6PHjuGfM2eY24eHh6N2bWuhyXLlynFd8Xvjxg0cPHiQub3UojhjmTBuHJXTJbKgEwDS03ICYGBtSAmAtvFu/uvfr98T//9Wnz5c/SlpM+CBAweY2/r4+KBLly7SBUPIY+gaYOlpOVU3sDZ0tloAUlyD6+HhgeDgYMW/+8vMzMSGDRuY2+v1evTs0eOJP+vapQvGT5iA1NRUpj63bNmCxKQkRTw3/42jQmHHjh3tutueEFuZLRauUwCUAORO2b+t+RhYGz6oBVCwYEEJw1GuipUrS9KPh4cHmjZpgndGjHD4hS+2+vGnn5CYlMTcvtVrr6FIkSJP/JmPjw/atWuHyMhIpj4zMjKwefNmDOjfnzkuKdy7dw+3b99mbt+xQwcJoyHkEd5bAKkGQO60/AiAqxaAs60CSCEzMxM7du7E623bot+AAcjIyBAd0jNWci63v3V/898zf967N1e/vHFJ4eLFi8xt9Xo9GjZoIGE0hDzCu1GWVgByp+UEAKB9AMKsXbsWvd58U1E73K9du4aoqCjm9sHBwWjdqlWuH2vcuDFX1bs///wT//77L3N7KfAkADWqV4efn5+E0RDyCM/vkZycHNy8eZNneEoAVMrA2pASAH47du7EdwsWiA7joZWrVnEtJb7ZqxdcXV1z/ZhOp+OqCQBAeE2A/ziKElWsVEnCSAh5Ek8CcOvWLZ6aHzkAYpgHVzhKAJ6DagFIY8bnnyMrK0t0GLBYLNwFbt588808P96nd2+4uLD/SK2OiBC6YsJzB0aF8HAJIyHkSQKPAF4HwF4xTOG0ngBQLQDB4uPjcfC330SHgaioKK6yu7Vr1ULVKlXyfE1YWBgaNmzIPEZsbCz27d/P3J5XKnulNBQvXlzCSAh5Ug7VAJAFJQDPa0gJgGTOcBTdkQrvWfvnbf575nW8mwE5axTwSOW4ntjX11fCSAh5EtUAkIfWEwADc0NKACSTnJwsfPwtW7Ywt/fw8LC5wE3Hjh25JsOt27YJu46aZwXAx9tbwkgIecRsNnNdTkVHAJ9P6wkA8xcvJSUF8QkJUsbitEJCQoSOv37DBqSns5fy7tC+PQIDAmx6rbe3Nzp16sQ8VnZ2NjZs3MjcnofbczY42iKb42IlQvLCWwOAVgCeT+sJQBqAu6yN6TGANBoIPh++gnNZ3d5Sv7yPAVYJqgnAs3KRwvH4gJC8mKgGgGy0ngAAdBRQqOrVqqFa1arCxr948SKOHj3K3L548eJo3LixXW0aNGiAcI5d8ceOH+e6rIiVD0cCkECrZUQmPM//s7OzuapbghIA1TOwNqQEgI+Liwu++PxzoTH8sHw5V/v+/fqhQIECdrd7+r4Ae/FeV8zCl6OO/6VLlySMhJBHeBKAmJgYnkcImQBuMQ+uApQA5IFqAbDT6XSY8dlnaNKkibAYTCYT1qxdy9xep9OhV8+eTG3f6tOHKXF4ICIykqd4CZPQ0FDmtjxVBAnJi8BLgAwA2AdXAWdIAOgooIMFBwdj5YoVGPnuu0Lj2LlrF27dYk/gGzdujDJlyjC1LV68OFfyc+fOHezes4e5PYvy5csztz3y11/cm7UIyQ0dAZSPlm8DfMDA2tBZEgCeGvYPBPj7o2TJknj11VfRrWtXRZwL5z1T39fOzX9P69O7N/bt28fcftWqVXi9TRuuGOwRzpEAxMfH4+y5c/kWSyLEXgKrAFICoAEG5oZOkgCcP3tWdAiSu3PnDnbs3Mnc3s/PD+3bt+eKoUP79gjw92e+fnj7jh24e/cugoKCuOKwVenSpeHm5obs7Gym9rt376YEgEhKcA0AA09jNXCGRwBUC8AJ8T5D79qlC7y8vLhisKeAUG6ys7Oxdt06rhjsodfrUb16deb2IjYuEm2ja4Dl5QwrAA9qATC9jYqOjkbBwEBpIyKy4z1Lv2btWmzevJk7jizGd9MPrFy5Eu+MGMEdh62aNmnCfGzy3PnzOHHyJGrWqCFxVMRZUQIgL2dYAQBoH4BTOXrsGM6eO8fVR3p6OhISE7n/4alACACn//kHp06f5urDHo0bNeJqP2fOHIkiIYTvEqDU1FTe+hSUAGiEgbUhHQVUH5EX6sjBkZUB69evDw8PD+b2GzZuxOXLlyWMiDgzgbcAJgMQcymHA1ECkA9KANQlMzMTGwXV0pdL5Jo1yMrKcshYnp6eaN2qFXP7nJwcTJo8WcKIiDOjI4DycpYEgGoBOImftmxBQmKi6DAkFR8fz3WiwV69evXiar9l61Zs37FDomiIM+OtAsiBEgANMbA2pARAXVYKukhHbo58DNDqtde4jx6+O3KksGuNiTZYLBauGgB0DXD+KAHIryElAKpx48YNREVFiQ5DFrt27+aqamgPV1dX5hLID8TExGDgoEFcZ7iJc6NrgOVHCUA+kpOTNbekrFU/LF/OfWxIqXjvNbDXu//7H9zc3Lj62LFzJz6cMkWiiKRz5MgRDB46FJWrVkXRYsVQvEQJNG/ZEt/Om4ek5GTR4ZH76Aig/JwlAUgFcI+1MT0GUD6LxYLINWtEhyErRz4GCA0N5d4LAAAzv/4ac+bOlSAifmlpaRgwaBAaN22KVatW4b///kNCYiLu3buHQ4cOYfyECahRsyb27t0rOlQCvhMAAO0BsIWzJAAA7QPQtKioKFy5ckV0GLI6d/48jh0/7rDxxo8dy3Wj4QPvT5yIz7/4QoKI2KWlpaFDp06IjIzM83WxsbHo2Lkzfv7lFwdFRp6H5xFAfHw8UlNTeYZ3il/6lADYgBIA5Vuh0c1/T3PkKkDZsmXRv18/7n4sFgumffQRRo4axXzPAI+MjAx07toVv/32m02vNxqNGDhwIG7evClzZCQvAo8A3oZ11VjzKAGwAdUCULbk5GRs2bJFdBgOsXbtWmRkZDhsvI8//liyy4i+X7QIzVu0gMFgkKQ/W6Snp6N7jx44cOCAXe2SkpOFr1o4O6oBID9nSgCoFoBGbdi4kbvkrlokJSc7dHm6YGAgZkyfLll/R48dQ+06dTBn7lyYTCbJ+s3N1atX0bRZM+zes4ep/bp16zS7qVQNTJQAyM6ZEgADa0NKAJRthcZK/+bHkY8BAKB3795o0qSJZP2lpKTgvfffR526dbFp82bu415PM5lM+G7BAtSuU4frHoWk5GQqayyIxWIReQ0wJQAaZGBuSAmAYl28eBF//fWX6DAcau++fbw7nO2i0+mwfNkyBAcHS9rv2XPn8Gbv3qj50kuYN38+7ty5w9VfZmYmVq1ahRovvogxY8fybgIDYH28RByP9wQArQDYxhmuA37AwNrwQS2AwIAACcMhUli+YgVX+/HjxmHMmDESRWO7jz/+GAsWLmRqazabEblmDSaMHy9xVM9XpEgRLF+2DG3bt5f8Hfu///6LcePH4/2JE9GoUSM0bdIETRo3RuXKleHl5ZVn25s3b+LPI0ewc9cu/LxtG+L5bn97hp+fn6T9EdtQDQDHcKYEIAXWWgCFWBpHR0dTAqAwJpOJ6+y/TqdD/379hHxdBw0axJwAAMCq1asxftw46HQ6CaPKW/PmzfHBxIn4VMI9AY8zmUzYv38/9u/fD8D69QkNDUWpUqXg4+39MBnIzMxEXFwcDNHRuHv3riyxANbJv1y5crL1T56PJwEwm824ceMGz/CUAGiUARwJQI3q1aWNhnDZuWsXV3ncRo0aoUyZMhJGZLvKlSqhZo0aOHHyJFP7S5cu4ciRI6hbt67EkeVt0gcf4MaNG/hh+XLZx7JYLLh+/TrvuzlmPbp3l6QOArEfzypTXFwcz3HTHABivuEEcKY9AABtBNSUlZyb//r26SNRJGz6cI4v4uIjnU6Hb+fORds33nD42I7k5+eH8ePGiQ7DaQk8AngDgOOLVQhCCYCNqBaAsty5c4frilw/Pz906NBBwojs16NHD7i7uzO337hpk5Djj3q9HitXrEDz5s0dPrYj6HQ6zJ83DyVKlBAditOiGgCO4WwJANUC0IjINWtgNBqZ23ft0iXfDWZyKxgYiDatWzO3F1kAydPTEz9u2oRuXbsKGV9On8+Yga5duogOw6mZ6QigQzhbAmBgbUgJgLJs2LCBq/1bgpf/H3jrrbe42q/n/DzwcHNzw/IffsDwYcOExSC1DydPxsh33xUdhlOzWCxcewBoBcB2lADYiBIA5UhITMTfJ04wt69QoQLq1KkjYUTsWrZogSJFijC3/+333yU/lmcPFxcXzJ41C3PnzIGHh4ewOHjpdDp8Nn06Jn3wgehQnB5PBUCAEgB7UAJgo6TkZCQmJUkYCmEVGxvLNen15XzXLSW9Xo9ePXsyt09NTVXE9+WQwYNx4NdfVXlszsPDA0sXL8aY0aNFh5IvRx77FIVqADiOsyUAD2oBMFHyKkCAvz9Tu4KBgRJHIj89x9Es3glXDryPI5RyVK1G9er44/ff0a9fP9VMVKVLl8bBqCj06tVLdCg28WP8OQfU87POk9ybTCbExcXxDE8JgMYZWBsqOQEoW7asQ9uJFBYWxrx7/rVXX+VacpfDCy+8gNq1azO1LVy4MPwVVK3Oz88PC7/7Dod+/x21XnpJdDjPpdPpMHDAAPz155+oVrWq6HBsxvPzKqrmhb14VgBiYmJ42mcBiGUeXIUoAbCDkhOA1oy7ydu0aSNxJPJzd3dHyxYtmNr2799f4mikMYAxrjdef13iSKTxYs2aOPDrr/hm9mwUK1ZMdDhPqFixInb88gvmz5sHX19f0eHYpWqVKihZsqTd7VxcXNC6VSsZIpKewCOA0QDEbagRgBIAOyi5FsDwYcPsrlvu7+eHoUOGyBSRvMaNHWv3MnO1qlW5jt3JqVfPnnafO3d1dVX0jnW9Xo9hQ4fiwrlzWLp4McqXLy80nuLFi2P+vHk4euSIpLcbOpJOp8NYhrsrevXqheLFi8sQkfR4LgKi5//2ccYEQJO1AAoVKoQ5s2fb/HqdToe5c+eiYMGCMkYln7p16+J/77xj8+u9vLywaNEiuLgo81ve3d0dSxcvhl5ve3XuaVOnIjw8XMaopOHm5oY333wTJ44fx7q1a9GubVu4ubk5bPy6deti+Q8/4PzZsxg4YIBdn2MlGjhggF1FmEqWLInPP/tMxoikxbMHgGoA2EeZvw3lZWBtqOQEAAB69uyJOd98k+8vOFdXV8ydMwfdu3VzUGTymPHZZxgyeHC+rwsMCMDmjRsVf5dDo0aNELF6db4FinQ6HSZ98AHTO0GR9Ho92rdrh/Xr1sFw5Qq+mT0brV57DT4+PpKPVaVyZXwwcSKO/vUXDuzfjx7duzs06ZCTXq9HZEQEWtjwGKxcuXL4eetWBAUFOSAyfmazGRaOIkC0AmAfdWzVlVY1AKdYGvr7+SGO4/IZRzlx8iQ++ugj7Nm794nnaXq9Hi1btMC0adNQvVo1gRFKa8fOnfj0009x/O+/n/hzT09PdOvWDVMmT1bN8icAXL16FVOnTcPWbduQmZn58M91Oh0aNGiAqR9+iFdeeUVghNIymUw4duwYDkRF4cyZM7h06RIuXb5sc5njwIAAlC1bFrVr18bLtWujfv36CAsLkzlq8XJycrB8xQrM/PprXL365NxVsGBBDBk8GGNGj1bVlcZGoxEJHMda27Vrh5OMF2wB6AZAXGUtAZwxAfAFkMza+FZsLPORO0eLj4/HqVOnEJ+QgIKBgahevbpql/xtce3aNZw5exYZGRkoHBKCGjVqyPLu0lFSUlJw6tQpxN2+DV9fX9SsUQPBwcGiw3IIi8WC2NhY3IqLQ1pqKlLT0h4mBJ6envBwd0dwSAhKliypqFMQopw/fx5Xrl6FyWRC8eLFUbNGDcUcD7VHVlYWklJSmNvXrFkT9+4xn/SuDeAY8+Aq5IwJAGCtBcA0Ex75809NvXsmhBClSEtPRxrjBVfp6el44YUXeIYPAkedGDVyxj0AgIb3ARBCiFoJPAHAVSROrSgBsBMlAIQQIg+6BtixKAGwk5JrARBCiJrRLYCO5awJgCZrARBCiJrxrABQDQD7OWsCYGBtSAkAIYRIj24BdDxKAOxtaGBuSggh5DkoAXA8Z00AmL/YScnJSEpmLiNACCEkFzzP/wHrTYAcKAFwIikA4lkb02MAQgiRFs8RwISEBKRwFBACx74wNXPWBACgfQCEEKIYAo8A3oX1TaHToQSAASUAhBAiLRPVAHA4SgAYUC0AQgiRFl0D7HjOnABQLQBCCFEAi8VCRYAEcOYEwMDakBIAQgiRDu8RQDoBwIYSAAaUABBCiHTMFgtXe1oBYEMJAIOExESqBUAIIRLhWQGwWCy0AsDImROAZFAtAEIIEY4nAbh9+zaysrJYm5sBOO2ubr3oAAQzACjI0jA6OhrVqlaVNhpCJGI2m3Hr1i0kJiUhNSUFyfcrWCYnJyMlJQXZ2dkAAJ1Oh4CAgIftAgICoNPpUDgkBIULF0axYsXg5eUl6q9BnITAGgA3ATBnD2pHCQDwIktDWgEgoplMJpw9dw6XLl2CwWCw/hMdDYPBgGvXrj2c5Hn5+/mhWPHiDxOCCuHhqFq1KqpWqYISJUpIMgZxbnQEUAxnTwDoKCBRBYvFgkuXLuH48eM4dvw4jv/9N06dOoWMjAzZx35w/8X58+ef+VhgQACqVquGqlWqoGqVKmjQoAHKly8ve0xEWwSuAFAC4MQMrA0pASByu379Onbt3o1du3bh4MGDitx4mpCYiIMHD+LgwYMP/yw0NBTNmjVDs6ZN0axpU4SEhAiMkCid2WLhOgVACQA7SgAYUTVAIjWj0Yg//vjj4aR/9tw50SExiYmJwcqVK7Fy5UrodDpUqVwZzZs3R6eOHfHyyy+LDo8oDO8tgJQAsNOJDkCw6gBOsjQMDAhA7M2bEodDnNHfJ04gIiIC69avx927d0WHI6sSJUqgXdu26NOnD2pUry46HKIAWdnZXKtb9erVw40bN1ibNwZwMN9XaZSzJwB+AJJYG8fdugV/Pz8JwyHO4vr164hcswYRkZG4ePGi6HCEqFG9Orp3747u3bqhWLFiosMhgqRnZCA1LY2prclkQnh4OEwmE+vwYXDiY4DOngAAwD0wHgX868gROgpIbGaxWLBj5058O28eoqKiuJc+tcLV1RWdOnbEu+++i5deZDqUQ1QsJTUVGZmZTG2vXbuGhg0bsg6dDcALAF8dYhVz5kJAD9BJACKr7OxsRERE4KVatdCpc2f8+uuvNPk/xmg0Yt369WjQsCHqN2iAiIgI7trwRD0EXgJ0DU48+QOUAAAcGwEvXLggYRhEa5KSk/H1rFmoULEiBg4ejHO5HKMjT/r7xAkMHDwY1WrUwMLvv0cm4ztDoh45HAkA5+Mzp94ACFACAHAkAEdpR+yBAAAgAElEQVSOHJEwDKIVGRkZ+OLLLxEeHo5JkycjNjZWdEiq899//2HU6NGoUq0aVq9eTSsmGmWxWLhWe44dO8YzPCUAogNQAOYUcs/evbhz546UsRAVM5vNWL16NapUq4ap06Yp8ty+2sTExGDQkCGoU7cudu/ZIzocIjGTyQQLYw2ApKQk7Nu3j2d459x9+xhKAIAzrA2zsrIwa/ZsKWMhKrVv3z7Uq18fg4YM4TmSRJ7jnzNn0K59e7R+/XX8feKE6HCIRIzsu/exZMkSpKen8wx/mqexFtApAMAX1pMAriyN9Xo99u7ejbp160obFVGF6OhojBw1Cjt37RIditPQ6XTo27cvPp8xAwH+/qLDIRwSkpJgNBrtbnf69Gl06NCB5/ifGUAIrL/7nRatAAApAJgf5ptMJnTq3BmnTjt9MulULBYLFn7/PV6qXZsmfwezWCxYvnw5ar74In7+5RfR4RBGppwcpsn/4sWL6Nu3L8/kDwB/w8knf4BWAB54H8AMng68vLzw5RdfYED//nBxobxKy/777z8MHT4cv//+u+hQ8uTh7oKQQnoUK+yKkEJ6+Pm4wMvTBT7eLnDVP/ujn5icg+RUM1JScxCflIOYWCNu3TEi28hep90RunXtillff42goCDRoRA7JKem2nXKw2w2Y+PGjZg6dSrSGAsHPeZjAFN5O1E7SgCsSsB6GoB75q5QoQIGDRyIV1u2ROnSpeHm5sYdHFGGnJwczJs/Hx99/DHvs0dJlQp1Q83KnqgS7olypd1QLswd5Uq5I7gg/1UfFgsQd9cIQ0w2zl3KwsUrmTh3IQMnzmXgxh2ud2CSKlSoEL6eORM9uncXHQqxgdFkQmJSUr4bAE0mE65du4aoqChERERIVTXTAiAcwGUpOlMzSgAe2Q6gtdSdBvj7Q6dzzKdZ5+KCgIAAlChRApUrVUKjRo3QskULeHt7O2R8ud26dQs7d+7EocOHceHCBdy+fRvJScyVnO1myslBSkqKw8bLjaeHC+rU8EKjOj5oWNsbL1XxQqB/AccHYrHgxtVMHDuWiiNnMrD/eDqOX8hEjuDTev5+frQCp3AWwOad/0ny/HzvB9Bcjo7VhhKARxoBiBIdhNR8fHzwZq9e+GDiRBQuXFh0OEwOHjyIWbNnY8/evU5ZIa5CGXe80dwfbZr6oUEtb7i5KujH1mwBUoxAmglJqWYcOJGO7X+kYevvqYiLd76vFVGFVwHQmVJQAvC0fQCaiQ5CDt7e3hg1ciTGjxsHDw8P0eHYJCYmBiNHjcIv27eLDsXhKod7oEfbQHRvG4ByYe6iw8mfyQIkZgPZ1knfbAYOn8nAj1GpiNyTglv3lPO4gDi1QwCYLw/QGkoAnlQZ1uuB+R+eKlTtWrWwYf16FClSRHQoedq5axcGDBiA+IQE0aE4TMGAAujbuSD6dimIai94ig6HTWYOkJQN5Dxa4s0xA7uOpGHVjmT8dDAVWQrfVEg0KwdALTBeAa9FlAA86xMAk0UHIadixYrhpx9/VOxNhqtXr8awt9/mPeajGnVqeGF4nyB0ez0AHu4aeH5tBpCcDaQ/+/WLi8/Boi2J+P6nJNy86xxfX6IYXwJ4T3QQSkIJwLP0AA4CqCc6EDkVK1YMh377DUWLFhUdyhNWrFiB4SNGaL72u04HvN7UD+OHFcYrtbWxSfMZWWYgMeuJ1YAHjCYL1u1LwYyV8ThvyBYQHHEyR2Fd+qdvtsdQApC7YgAOAygpOhA51a5VC7t37YKnpzKWm51h8tfpgM6tAjB1VBFUDlfHXgwu5vt7AzJz3xBoNgObDqRg+op4nL6c5eDgiJO4CaAuAK67g7VIwPkhVUgBsBdAdwBegmORzc2bN+Hi4oImjRvL0n9OTg6MJhOMRiOys7NhNBqf+8/y5cvxv3ff1fTk/1ojX6z5thRGDghGSCHNbjN5kk4HeOqBArpckwCdDqhc2h1D2gegbKgr/v43E0lp2v0eIA6XAOuuf6e/+Cc3tAKQt6qwHhdR5/k5G3h7e+PM6dOSPgrIys5Genq6zRd9rFu3Du+9955mJ/8KZdwxe0pxtGrsJzoUsYxmID73RwIPZGRZMHdDAj5bEY+UdG1+PxCHuQPgNQB0e9Rz0ApA3m4D2Azr0UBNJgFGoxFpaWlo06YNd18WiwUpaWlIS0uzeTLX8uTv4+WCT8cXxfKZYahQxgmW+/NTQAd46YFs83OTAFe9Dg2reaJPKz9E3zLifDQ9siVMzsH6zv+s6ECUjFYAbOMD4FsA/QTHIQtvb29EX70KHx8f5j4sFguSUlKQnW37L2wtT/6vvuKL72eUQFhxKgWdq8TcTwk87edDaRgxMw7Xb9OJAWKzVQBGwPool+SBVgBskw1gC4DjsJ4OCBQbjrSMRiNq1KiBihUrMrWnyf8Rf98CmP9JCcycVBwBfvTj9VweBaxvP7Ly/vqHl3RD/zf8cfOuiTYJkvwYAPQF8Dlot79N6DeUfS4CWAggHkAVAJp5qFuoUCG0bm3/VQg0+T9S70Vv7FpVFs3q+8BB1z+om1sBQJ/75sDHebjp0LGxD6qUdcf+4+nIyKJCQuQJNwFMg3XyPyc2FHXRQNURh8sCMBtAaQC9YL1ESPXZ5pmz9j8qo8nfysUFmPxOYUStK4fSJWjJ3y6eeqCgO2zJmDo38cHxH8JQpxLtpyAwAtgB4E1YfxfPgvV3M7EDvU+RRgCslwm9AqA6gLIAQgGoZjYIDQ3FZTuu2qTJ3yrArwBWfxOGNk01sxgkRlYOEJ9tvX84H9lGCybMv4O5GxIdEBhRACOAGFiv7/0H1kJtB2E94kc4UAIgL1dYNxA6Sh1Ys2K7+fv5Ie7WLZteq6DJ/zCAPrA+kslPaQC/QsLHNpXKe+DHRaVRvpQKLutRg+wc4F6W9b5YG6zckYyhX8RJfbdADIAmsO17isgvDRpYYVUqSgC0xQvWHxj7G3p5If7u3Xxfp7DJvxWAZBte6wvgD1j3bUiiRQNfbFxYCn4+tI1GUnasBADAb6cy0HniTdxNkvTq4X2wfm/R0QOiabQHgNhMpZO/C6zHgiSb/N/qVBC/LC9Dk78c3AsAgW427QkAgFeqe+Lw4pIoL+3ei+aw7vMhRNMoASA2UenkD1hvdmwv1eAThobgh5kl4aqnxTPZeBQAAlxtfnnZ4q6Imh+KauUkfRTzDjRa94OQBygBIPlS8eTfGMAUqQZ/b1gIPn+/GB3xcwRPPeBrexJQpJAeB+aXQP2qkl5stQDWTb2EaBIlACRPKp78CwNYA4lqXXw6rihmvFdMiq6IrXxdrYmAjQJ8XLBzdnEpkwAPAJEANHpfM3F2lACQ51Lx5K8DsAKAJDccTXm3CD4YocmrIJQvwNVaMMhGPp4u+GVmcdSuKFmtgEoA5krVGSFKQgkAyZWKJ38AGAbrLWDcRvYPxrTRRaToirDQ6YCCbtaLhGzkf38loEZ5yfYEDADQTqrOCFEKepqpLZIcA1T55F8WwClIsGzbp2NBLP+6JD3zV4Ks+1cJ23g8EABi75nQYOh1GGKNUkQQB+v14Hek6IwQJaAVAPIElU/+LgCWQ4LJv3EdHyz+ogRN/krh7gL42L4fAACKFtLj55nFEegryTaQwrBuCiREMygBIA+pfPIHgMEAGvIOXr6UOzYuKAU3V5r9FcXX1ZoI2KFSKTdsnlFMqq9lZ0h4pJQQ0SgBIA+pfPIPATCDd3BfbxdsWVIahQLte7dJHCTA3e7fWo1remL2yGCpIpgLx5b3JkQ2lAAQANZ3/yqe/AFgJoBA3gCWfFkSL5Sl2+YUq4AO8Le/6t/wjgEY1NZfighKApgqRUeEiEYJALGbAif/BgB68wYwemAwurYJ4O2GyM1Tb60WaKe5Y0LwUgVJkrtRACpK0REhIlECQOyiwMlfB+BLcJ5oqVnZkwr9qIm/G+Bi35fcw02HtZ8Uha8X9689Pazfc4SoGiUAxGYKnPwBoCeA+jwBeLi7YMWsMNr0pyYFdHaVCn6gbHFXqfYDvAGgpRQdESIKJQDEJgqd/N0BTOcNYsZ7RVElnJ77q463HnC1/1fYgDf80aWprxQRfAn6HUpUjL55Sb4UOvkD1gptpXiCqFPDC//rK9kOceJo/vavAgDAd+NDEBzAXR+gBoBOvJ0QIgolACRPCp78XQFM4AnCzVWHJV+UhAv9FKiXWwG7Lgx6IMi/AL58R5LEbxro9yhRKfrGJc+l4MkfAAaB893/hKEhqExL/+rnx7YK0Le1H1592Yt39MoAuvB2QogIlACQXCl88teD891/yWJumEg3/GlDAZ11PwCDb0aFwFXPvflzEuheFaJClACQZyh88gesz11L8XQwfXxReHrQt79m+LiC5eKGF8LcMKIzd+2HagBa8HZCiKPRb0BtYb72zGg04u7du1izZo3SJ38AGM3TuHY1L/Rqz100kChJAR3gxbapb8qAQgjy594QOIa3A0IcjZattCcZgCRnnCQi9eRfD8AfPB3sjSiHZvWpnLvmmC3ArQymprPXJWDsXK6bfi2wXhd8lqcTQhyJVgC0R0n3lUs9+QPAMJ7GjV72oclfq1x0gBfbXoBhHQJQLIjrAigdOL83CXE0SgC052/RAdwnx+TvD84d11NHFZEoFKJIPmwnAjzddXj/rYK8o/cBwH2sgBBHoQRAe7iWxyUix+QPAG+C4xdsg1reaFqP3v1rml4HuLP9Whvczp93FYA7QSXEkSgB0J6fAEi6g89Ock3+gLXyH7NRA6jin1PwZlsFcHfVYUQX7hMBA3k7IMRRaBOgNu0F0FzAuHJO/hUAXGBtHFbcDZejKqJAAfqW1zwLgNsZQI7F7qYJKTkI63gVqRnMObQFQGkA0awdEOIotAKgTZ8LGFPOyR8AuvM0fqdvEE3+zkIHpvLAABDoWwD92vjxjk6PAYgqUAKgTXsBbHPgeHJP/gBHAuDmqsNbnbk3eBE1YTwNAABDOvjzjs6VrBLiKJQAaNcIOOZIoCMm/8oAKrE2bt/SH8EFuTZ3EbXR6wA926+3KmXcUacS1x0RtQGE8XRAiCNQAqBd1wH0BGCScQxHTP4A8DpP4wHdC0kVB1ETjlWAAW25VwHe4O2AELlRAqBt+2BdjsyWoe+DcMzkD3AkAEWCXdGiAR39c0qe7OV9uzXzhbsr154RrqSVEEegBED7NgNoC2kfB0QAeA2OmfwLAqjP2rjja/60+c9ZFdABrmy/4vx9XPBaHW+e0ZsC4OqAELlRAuAcdsN6Y9nPnP3cBdAPQG8AmZx92aoJrNf/MuncmvtcN1Ezd/ZVgC7NuFaOPAC8wtMBIXKjBMB53IJ1JaDx/9u78zA7inr/4+8zk0xIQlgChFUIRBB+LAFBEYWIiIiIAUG4ooIC4soFA4isIipKZFHkAkHUX8SwCIjshC1sSQADZDUJCdnIMpkls2Vmzpmz9f2jkpsAs52q7tPdpz+v56lHnsdUdc3pmVPfrq76FjClxLrrgF9h9uL/zed+9eWzthW333YAYz6ph7BE28I+ABh75JaurwGsf3dFykFLo5PnFUySoFHAVzFfUnsBuwAbH5fXA4uA14FnNpQg1hH0x9G2FY89chgDBmj6P9FqqszO/NJzArHV0CqOHD2YF97stL360bYVRcpBAUByLQFu3FA2GgzkCHbnQCmGAwfYVj5uTJRORZbQ1FRDV8Gq6nGHD3UJAA4FtgTabRsQCZJeAcjm0kRn8Af4JJa/o6kUHHeUAgDB+nAggC9+0ulwv4GYIEAkkhQASJRZf3nus+cgdtnR7lAYqTA19usADhw1iBHb2tcHDnOpLBIkBQASZdZfnp8+VIv/ZAOHhXypFHz6wMEuV9cMgESWAgCJskNsKx5+iAIA2SBlnw8A4Ai3AEAzABJZCgAkqoYBu9tW/tQhTu9updK4BAAHOJ0LsBcmJ4BI5CgAkKjaF7OBq2Q1A1Ps91F958pmHAKAg/ceRMr+LUI18FHr2iIBUgAgUfUx24r7jtqCgdr/L5tz+H3YcnAVI3dyWlC6r0tlkaAoAJCosg4ADtxXT//yAQ4zAGB2Aziw/l0WCZICAIkq6/PUNf0vH1KVsnyhZOy/Z43L1Ue6VBYJigIAiaqP2FYcuZvTl7VUqmr7r7uRuzi9AtjNpbJIUBQASFRZf2nusasCAOmGQz6fkTs7BQDWwaxIkBQASFTtaltxD80ASHdcZgB2cjo2RTMAEkkKACSKhmAOJipZVRXsvIPOuJJuVNkvAththNMMwNaYcwFEIkUBgETRcNuK22xVTXW1tgBKNxx+LwYPSjFkC6ffq236/ici5aUAQKJoW9uK222jp3/pgWNcuN1WTocCWf9OiwRFAYBE0da2FYdv4/QlLZXMcWZoe7ffLc0ASOQoAJAosj59ZdhQBQDSE7cAYMvBTl+XTicKiQRBAYBEkfUy/poavf+XHjj+agxy+93S1hSJHAUAEkXWK6ZrHM5+lwrn+KtR43a+hAIAiRwFABJF1gHAAO0AkIA4zgBoG6BEjgIAiaK8bcVC0fOzH1JJHH818nmnBqx/p0WCogBAoihtXTGjAECCkc46/W5l/OqHiF8UAEgUdVpXTBf97IdUEs8tOMx0OdW3DmpFgqIAQKLIYQZAAYD0wHFyKK0AQCqMAgCJIusvy04FANIT5wDA6XdLrwAkchQASBRZvwJo71AAID1wfAXQ2Fpwqa4ZAIkcBQASRR22FWvrcxQVA0h3CvYBQC7vuQYAjS6VRYKgAECiqAHI2VTM5jzq11lVlUrnsEW0dl3BJbBcv6GIRIqOTuuf7YGtQu5DEajHYXo8RorAGmAPm8qr1ubYaQflXZEPcAgA1jQ6beNf41I5ZoYAO+Kcd9FZG5p16ZMCgO6lgFOB84AxwBbhdud91gKPAzcDC0PuS5BWYRsA1OY47ECfeyPx5zCDX+sWANS6VI6B/YGLgBOBESH3ZXMZ4CXgT8AjOC8DrTx6BfBh2wMvAA8CxxGtwR9gJ0xgMhe4gvAj7aCssq64Vq8ApBsOawAWrcy6XLlSZwBSwDXAbOAcojX4g/nuPh54GHgGGB5ud6JHAcD7bQW8CHwu7I70wwDgug2lEq20rbh4aZef/ZBK4AEF+5f485cpAOjGDcAvgDicwf0FYAqwZdgdiRIFAO93C3BA2J0o0WXA58PuRACsZwBmzU/CMgkpSd5ta8g8t6BykdPFo+lLwMVhd6JEo4Ebw+5ElCgA2GRv4KywO2EhBfwq7E4EYIltxTkLM65bvqXSOAQAxSIsXOE0A/Afl8oRFdfvnHOBPcPuRFQoANjka8T38/gUsHvYnfDZbNuKresLLHN7ZyuVxuEkvyWrs65pgCstABgFHBp2JywNAE4JuxNREdcBLwijw+6AgxRwUNid8NlKHLbxzF6gxGuymZz9DMD0eU5ZfFcBrS4NRFCcvyuh8r4rrSkA2GTrsDvgaNuwOxCAObYVZ87TOgDZjMMrgOlznILJSnv6B31XVgwFAJvUh90BR3VhdyAA1q8BprzW7mc/JM6KntMrgKluAcBcl8oR1RB2BxzF/bveNwoANnk97A44yAEzwu5EAKwDgH/P6qSt3Sl3u1QKh1P8GlsLrgsAp7tUjqjXcUqrFLpKvCdWFABs8k8cDqEJ2RNAc9idCMAs24r5gsfLb8T1doqvsvZj1Suz0i47SjxgmnXt6GrEJNaJozbg0bA7ERUKADapB8aH3QkLGeDKsDsRkHlAk23lKdN0/orgNAPw+KtOr5IWUbnTzZcDccy4dR2wLuxORIUCgPe7DpMzOi4KmBScC8LuSEAKmMyMVp5XACBFrBcAForw5HSnWaRKfPrfaA7wPcwnHBcPokRA76MA4P2KmHwA47E8jraMVgFfBu4LuyMBe8G24vzFGVrXx/lVpTjrsj/EZ9qcNI2tTr8/U10qx8DdwFiif9hRFvNwdwbxClgCp9MAP6yASa/7Z+DbwGeBnYlGsJQB3sW8858EJGGz+3O2FT0P3l3exaEHDvGzPxInGfsB/IlpzjtJXnJtIAaexGRR/RbmNMC9iMYBahuPFH8J+BuwNNTeRFSlniQnlWUZMNKm4ozH9lEAkFQesDaNzSq+YhFGnbaMFfYnS85FCWck4jQDIHHwAiaHd0lSKfjoyEEBdCc8+bzHy2+0M/edDPWNebyQDz1IpVKM2H4Ao/cbzJhPDqW6OkLPFF0Fq8Ef4MW3O10Gf4DHXCqLlIMCAImDR7AIAA4/eChbD4vDSaV98zy46/51XPuHtdTWR3N5yq47DeTacTtzzukROXbdYfr/b0+1uV5dW80k8iIUrov0qBqYD+xTSqV7btmDM8bGP+tnPu/x7Yvf477H4pHq4axThvOX330k/NmAtWmTBbBEbR1Fdhm7hM6M9ezKGmA3zEsIkciKwsI2kb4UMDMA/V7SfeIxW1XE4A9wyXVrYjP4A9z9cBOXjw95YXi6YDX4A9z//HqXwR/gcTT4SwwoAJC4mAp8g34kH/ns4Vty760jA+9QObw1t5Nb/xa/1Os3/6WeOQtD3KSSttv+53nwxwecg617XRsQKQcFABInDwKHAc/TzRPWdtsOKP72Z7vw3KRRbDmkMn61b53Y6JKKNjTFIvzPROvTnN0UPOvsf0+91sH85U65/5cAr7o0IFIuWgQocTMP+AIwCvgMJkdDFpi79NX9vjxsaPVPwuyc3555xXkxWmhC63tn3nr1/033Oj/9T0TT/xITCgAkrpZsKP9nq8HVKzy4gAqZ2cp0FalfZ5/JLmyr63Lk8h4DB5RxMaCHCQAsvLkww0szO12uXsRkxxOJhYr4ohQBSI2atRjP+1fY/fBLKhXvTTqpVKr824zSBfMKwMJ1E63PndroBeA910ZEykUBgFSUlJeK44mO3RpUk2KXHQeG3Q1ru+8ykAHlfPoH6LDLkfDavAyPup38ByZ9uEhsKACQipIaNWsGDicIRs0JR28VdhesnfC5Mvc9U4Cc3eK/KyY477RYDjzs2ohIOSkAkIqTwquYWYCLzhvBgLAT6lgYOCDFBWfvUN6LWj79P/VaBy/PdN6y+HtKyFMhEgUKAKTyjJz9LHivh90NP3xsr0Fc/qMdw+5Gya6+cCf2Luc5DNmC1da/fMHjignO2xWbgb+6NiJSbgoApOKkUngpqsdRIduxrvnJTpx/1vZhd6Pfxp27A1f+uMxBS5vdw/ctD7Qw590+c0v1ZQLgvIBApNziN7co0k/FZQf/Czg57H745eHJrVx9Uy0L3s2E3ZVu7b/PFlz3050Ze+zW5b1wugDNpQ/i79XlOeCby2lP260b2CAD7AWEnPtYpHQKAKRieUsP+piXqpoLxHcpfTdmL0gze0GausY8xT7GruenrueFaeutrvOFI4dxzGeG9fpvqqpgx+0H8PEDhnDAPltYXcdZXQYKpQ/iJ/9sDY9NdX5wvxm42LURkTAoEZBUrNRec94pLBv9lxSpH4TdFz+N3m8wo/cb3K9/m04XrQOAz3xiKD/7wQirumXTkbMa/P/5Ursfg38b8FvXRkTCojUAUtGqBuSvBOrD7ocEoOjB+tJX/q9pzPPD39X50YMbgJAOPBBxpwBAKlrqI/9pSqW4KOx+SABasib5bgk8D877bR2NrQXXqzcAt7g2IhImBQBS8VIjZ91DiifC7of4KFMwpUQ339/M0693+NGDXwJ271ZEIkIBgCRCqpg6n5S2alUED2gt/cjet97JcNWdvszYz8Fs/ROJNQUAkgipvWauSHmpK8Puh/igNVvygT91TQVOuWwNXTnn1BBF4Ico659UAAUAkhwjZ94KPBZ2N8RBulDycb+5vMfXf76GlfW+jNl/Aqb70ZBI2LQNUBIjlcLz3qk+16spzAZ2eXNuJ3fdu45pb3VQW59jyyFV7L/PYE790tZ866vDGVSjNBmRUvSspv5/fGO9H7n+AeqAy/1oSCQKFABIoqQ+9lbjgin7nvPb/6l/+u6Hm943wje3FlhZm2Pyy22Mv6Oeu3+/O586ZGhYXZUPau4yQUAJbrqvmT8/3upXDy4CWvxqTCRsegUgSbPFfscsvPKDg/8Hvbuii2O/uYTJL7eVq1/Sm7ZcyYf9THyqjUtvcz7md6OHgHv9akwkChQASNLcABzVn3/YmS5yyveX89xU7fYKVboA7aUl/HnklXa+d30dnj/HQa0Cvu9LSyIRogBAkmQUUFJa4ExXkZPPW8aU6dpBGIpcEVpKO+jnxbc7+cY1teRL3CnQgyJwFtDkR2MiUaIAQJLkDCzWvaQzRU46bykvv6EgoKyKHjR1lXSo87P/7mTsT9eQyfp2EvQNwIt+NSYSJQoAJEkOs63Y0VnkK+cs5ZV/KwgoC2/D4F/CU/y/Xm7npEtX05FxOt53czOAn/vVmEjUKACQJNnepXJ7Z5Hjz1rKA09qIXjgmrOQ7f9A/vfJbfzX1bV+JPrZaC1wClD6vkORmFAAIEnivKQ/01XkjP9ezg1/0gGDgfA8s92vhDz/N97bzNnXrfXrnT9AF3AqZvGfSMVSACBJMsOPRjwPfvbbNZx32Uryed8GHQFozZlV//2QzXmc+5u1XHpbA0XfZv0B+G+U7U8SQAGAJMn9lHyAbM/+8o91fPX7y2h2P1pWwAz+/Uzz29BS4NgLVvH/n/Q9T8OtwF1+NyoSRQoAJEkWAPf42eCTU9o49MR3eGNWp5/NJovnQUsWOvq313/GggyHf/c9ps7xJb3v5p7AZPsTSQQFAJI05wPz/Wxw+aosY05bzE131fuVeCZZmrP9evIvFuF39zRx5A9Wsry2tMRA/fAKcDo65U8SRAGAJE0bcCywyM9Gc3mPn/5mDSd9dynrmjWG9EsRWJfp14K/2nV5vnTRKi67vZGc/+suZgJjAd+nFESiTAGAJFEtcAzwrt8NPzGljQOOW8j9jzf73XRlKXhm8O9Hfv8Hpqzn4LNW8FcGHtsAABD2SURBVNyMQF6zLAKOB3w7MUgkLhQASFKtxgQBy/xuuK4xzzcuWMGJ5yxl+SptI/+QXBEaM+Z/e7G8NseJl6zm61fX0tASyELLZcBxgPZ0SiIpAJAkWwkcTQBBAMBTL5rZgPET6rVdcKN0Hhp7z/CXL3jc8kAzB525gqde6wiqJwuBMcCKoC4gEnUKACTp3sOsCQgkCOhMF7l8/Bo+c+pi5i/OBHGJ+GjLmgV/vayU/M+yLJ/+3krG3dJAe9rfzf2bmYkZ/JXoRxJNAYAILAWOwKdEQd2ZMaeTQ098h/ET6v1OWhN9Bc9M+bf3vDiyWITr/97EYWev4M2FgQZK0zGvfhqCvIhIHCgAEDHqgM8BjwV1ga6sx+Xj1/D185eT6cfit4qQzkN9ute8/pmsxxnX1HLFhEY/c/l352nMO38d5iCCAgCRzXVgDoC5LciLPPR0C8d9awlNwSxsi4bihpz+zdlej/Ntaitw3IWreHDK+qB79AfgK5h7LCIoABD5oAImWdBP8DFt8AdNfbOD489aQkdnBc4EZApQn+kzp3+6y2PspWuCyOi3uTzmfo7D3FsR2UABgEj3bgFOAtYFdYE353byrZ+soODfKXbhyhdhXRc0dZkZgF4Ui3DmtbVMnxvo4N8IfJ6AZ3RE4koBgEjPngAOAaYFdYFHn2vlmt+vDar58vCA9Tlo6IKu/j1kX/vXdTz8cnuQvXoD+AQmxa+IdEMBgEjvNuYKuJaAXglcf0cd096M6avpjUl91ud63d63uZmLurj+701B9cgD/ojZ5rc8qIuIVAIFACJ9ywO/AL5MANvHikX43uUr47czoGvDlH8fGf02l815fPtXa4PI5w8mu+OxwIWAUjCK9EEBgEj/TQYOJoCtggvezfCn+wJbbuC/roLJ5d/Hu/4PuuuxVuYt7QqiR49g7s2UIBoXqUQKAERKswazOHAsPmeSG39HPelMDGYBckWz0K9EXTmP8ZN8n/pfC3wb+Cpm0Z+I9JMCABE7jwMHAhPwaW1AbX2Ovz4Q2Ltxf3hAS+97+3vy1ydaWVXv21HJRcxnvx9wt1+NiiSJAgARey3ADzELzub70eDEhyIeAKzPlfTOf3MTn2zzqxfzgKMwn72y+olYUgAg4m4aZrvgb7B6Nt7krbmdLF4eyDtydwUPOuye4JeszjFjgXOOfw+4DjgUk9NfRBwoABDxRxa4EjgTx1cCDz4Z0Yfajv5v9fsgH1L9FjGf7VVohb+ILxQAiPjrHkwgYO21tyOYE8DzoNM+k+4093S/V2M+WxHxiQIAEf/9DnjLtvKbczp97IpPsl7JW/4253jE7yxgvEsDIvJhCgBE/FfErAewUteYZ/XanI/d8UHO/ul/VX2euianc3iuQwf5iPhOAYBIMJ4ErJPdr22IWgBgv6xhdaPT1r92zJZLEfGZAgCRYHRhpq6tNLVG7IHX4cTC5jann+UtzGcpIj5TACASnFrbis1RCwAc3v83r3faFLHGpbKI9EwBgEhwrLerZXOBHJZjz6E7XW4/i57+RQKiAEBERCSBFACIiIgkkAIAERGRBFIAICIikkADwu6AiHzY/EUZnp/mnD+fpe/Zr6Fb9l52Ux+as9ZbARcs0zo+ERFJlnsx6+dV7MvfSv7URUREQlAFHAs8AOQJfwCNeykAzwGnAdUl3AcREZGySAFnA0sIf9Cs1LIYcyRwqp/3REREJFD7AM8T/gCZlPIKsH+/7oyIiEgAUsDlmIx/YQ+KSStdwCV93yIRERF/1QATCX8gTHr5CzCw91slIiLij22Alwl/8FMx5XlgWK93TERExNFAzKr0sAc9lfeXySiviYiIBGgC4Q92Kt2XP/dy30RERKxdSviDnErv5cIe756IvI/204r0z97AHGCLsDsivUoDB2LyMYhIL3QYkEjfUsAdaPCPg8HAbWF3QkREKsOZhD+1rVJaOb3bOyki/0evAER6Vw0sBD4adkekJLOAQ8LuhEiUaduMSO9OxcfBv6qqij322IOddtqJwYMH+9VsJHmeRy6X6/PfZTIZ6urqWL16NcVi0a/LHwwcBbzqV4MilUYBgEjvzvGjkZEjR3LJxRdz0tix7LDDDn40GQvtHR10ptP9+rcNDQ1MnjyZ22+/ndWrV/tx+fNRACDSI70CkI2GA18DDsdkVWsF3gYeAhpC7FeYtgfW4nAMbSqV4pKLL+bqq66ipqbGv57FRNHzWNfUhOd5/a6TzWa54YYbuPPOO10vnwNGAC2uDcXUCMzf9MeBrYA24HXM33RSPxPZjAIAGQZciXlaGtrN/58FbgR+iTmAJUnOBO52aWDC7bfzne98x5/exFQpswCbmzRpEldccYXr5U8HHnRtJGa2AK4FxtH9OQntwK3Abzb8tySU9ZONxF4V8B3gEeB4zOE23anGvEv9NPBPzFNVUlyAeXqyctG4cVx88cU+dieeUlVVZDKZkusddNBBtLa2MnPmTJfL1wNPuTQQM8MwP+836fn7vQbzN3020AjMxeyckITRDEAyfQK4BTiixHoTMV8aSTELGG1TcbfddmPu7NkVv9CvvxqbmqwW+HV2djJmzBjq6+ttLz0D+KRt5RiahBn8S/EW8BNgqv/dkShTIqBk2Q24F3iD0gd/MDMGNvXiKAXsY1v5wgsu0OC/mZqBdif2DhkyhHPPPdfl0h9zqRwzR1H64A9wKPAKJnjY1dceSaQpAEiGwcDPgXeAM3Cb+fmhLz2Kvh0xn1vJUqkUJ40d63N34q262v5t4/HHH+9y6a0wC1yT4McOdVOY4OEd4Cosf/clXhQAVLYUZhHUQsyioCE+tDnGhzbiYFvbittttx277767n32Jveoq+6+aPffck2HDhrlcfhuXyjHix9/mUOBXwHzgNB/akwhTAFC5DgFeAv4B+Dka7eJjW1Fm/QS044gRfvajIqQcAgCAEW6faXe7WypNFbCzj+2NBB7AbBs83Md2JUIUAFSeEcBdwJsE87SelF0ABduKaYsV75WulDwA3UlbbCPcTN7p4vGRDaDNw4FpwJ1AcjJYJYQCgMpRA1wCLAK+S3D3dkFA7UZNh23F2tpaCgXr+KEiuQQA+XyehganXFTW9zJGiphXfUGoBr6H+W65iO5zC0gMKQCoDMcCM4EbgK0DvtbDAbcfFbW2FdPpNNOnT/ezL7HnEhBNnz69X2cK9KAI1FlfPF7+FXD72wA3Af9B6wMqggKAeNsPmAw8B/y/MlyvCfhTGa4TBR04pEC+5777fOxK/OXy9rPwDz/sFHPWkpwMlndQnhS/e2PWBzwF7FuG60lAFADE07bAH4DZwBfLdM0i8ANM5rCkmG1bcdKkSSxcGNSMbLx4nkfeMgBYsGABjz76qMvlZ7lUjpk64EeUL6vfl4A5wM0kZ6dFRVEAEC/VmH34i4ALKd+7uDQmCVDScqq/YVsxn89z5lln0d6uVOtd2azVGoD29nbOP/981/UU1vcwpu7DrAEq10rUgZgzBxYB30fp5WNFAUB8HIM5ne92zCl15TIFkyns72W8ZlQ861J57rx5fO3002lqbvarP7GU6Sp9Br6pqYmzzz6bxYsXu17+GdcGYuivwGGYbcDlsgMwAZNW+OgyXlccKACIvo9gTqR7ATiojNddCXwb+DzJWfn/QdNxPAr5pZde4sijjuLJp5J0Hs0muVyObLa03WnPPPMMJ554Im+84fzwvhqzHTaJ/gN8DhgLLC3jdUcDLwKPA3uV8bpiQYcBRddQ4KfAzzDHe5ZLB+b43+sp3zRilP0B87rF2eiDDuLkk0/mE4cdxi677srgLcp5W8PR2tZGvo8p/EwmQ21tLTNnzuTpp59mwQLf4s2fY7LaJV0N5tXhLzGpkcsli5kVuApYX8brisRWCjgL8/TilbEUMaf9JSXTX3/th0kKVM57oeJeMpjzHGSTXTGziUXKey9WAd9CD5wivdoOeJLyf1m+RrKOTC3VPwl/QFMprdzd7Z0UgE9hFkeW+548hsMZGyKVbEvg35T3D1KRef/sjdkJEfagptK/0oHeP/clrJnG6fhzKJlIRfkD5fsj7AJuAZyOWEuYnxP+wKbSv3JpD/dQPmwI8AvKG+BeX44fTCQudsQcslOOP74HMSd9SWlqMEekhj24qfRe5qJc9Tb2onyvujKY150igsmwF/Qf3Sy0P9fVaKCN8Ac5le5LC7B/j3dP+uMYTAbMoO/VueX6gUSibgLB/aHVowxdfjqe8s3WqPS/ZIEv9HLfpP82ZhxtILj7dUvZfhqRiPs7wXwh3kl5swYmxQ8o/1YqlZ5LETi71zsmNrbBvK/vwv979ucy/hwikXYz/v5x6ZSu4P0X2hkQhZIBvtnHvRI3G08d9fO+jS/rTyASYafhzx/VQuCEMvc9yT6NecUS9iCY1NIIjOnzLolfTsQc+uPHvTu5zH0XiaxBmHPLbf+Y1mO28gwqc7/FrJ5+nvAHw6SVyWg3SxgGYlJjt2B/71ZjdtWIyAZnUvofUh7znn+HEPor7/cVzAFKYQ+MlV7WYBLYSLh2BO7CLk32GSH0VyTy/kj//4heAg4OpZfSk20wSWiWEf5AWWllCXAJ5T3MRvr2ceAV+n8fbwqnmyLx8COgk57/gJZi1gxIdFVhjmH1631pkstC4Mvo6PIoS2EWxS6j5/vYgdmOLBGiHPDRtB1mmvNoYE/MH8+7wEPAE5hpN4m+SViuUB8+fDiDBw/2uTv28vm8dd10Ok1bW5tt9Yloi19cVGNehX0NGIVJM7wMeBFzOFNzeF2T7igAEAmOdQDw61//mhNOiM6Gjvfee886CHjxxRe57bbbbC89EQUAIoHQtJqIiEgCKQAQERFJIAUAIiIiCaQAQEREJIEUAIiIiCSQAgAREZEEUgAgIiKSQAoAREREEkgBgEhwPNuKhULlJHssFosu1a0/QxHpnQIAkeB02FZsamrysx/OPM9+HG5paXG59HqXyiLSMwUAIsGxHryWLl3qZz+ceJ7nNCOxatUql8u3u1QWkZ4pABAJjvXI9+qrr0bmNUAul7Oum8/nefvtt10uv9Klsoj0TAGASHDesa3Y0tLCI4884mdfrGUyGeu6zz77LB0d1m9CwBwHLCIBUAAgEpzZLpXvuOMO6urq/OqLtc7OTqt6DQ0NPPjggy6XLgJzXRoQkZ4pABAJTi0OT7BNTU2MGzeO5ubwjlEvFAqk0+mS67W0tHD99dezfr3TGr45wDqXBkSkZwoARIL1nEvlhQsXcuaZZ7q+R7fW2tpa8g6AefPmcdlll7FixQrXyz/r2oCI9CwVdgdEKtzhwOt+NHTEEUfwxS9+kUMOOYQRI0YwaNAgP5rtUaFQYOXKlX3u489ms6xbt44FCxYwdepU5syZ41cXDsbxNYqIiEiY5mMS2qj0v8y0+qRFpN/0CkAkeDeG3YEYuiHsDoiIiLiqAZYT/lN1XMpCoNrmgxYREYmaUwh/YI1LOcHyMxYREYmkxwl/cI16+Yf1pysiIhJRO2DSA4c9yEa1rAC2s/50RUREIuxIIE34g23USgdwmMPnKiIiEnljgRzhD7pRKXngZKdPVEREJCa+DnQR/uAbdkljFkiKiIgkxheAJsIfhMMqDcBnnT9FERGRGNodmEb4g3G5yxvASPePT0REJL4GABcCrYQ/MAddWjb8rEr0IyIissHOwO8xK+LDHqj9Lusx6X1H+PZpiYiIVJjtMU/JMwh/4HYpRcxJiOcDw339hETEmY4DFom2nYFjMMcK7wvsiUmWMwzz6iAK8pgn/EZgGSaX/+vAFKAuxH6JSC/+Fxc455I3gwDZAAAAAElFTkSuQmCC;" vertex="1" parent="2">
                    <mxGeometry x="570" y="110" width="242" height="242" as="geometry"/>
                </mxCell>
                <mxCell id="4" value="&lt;span style=&quot;color: rgb(63, 63, 63); font-size: 22px; background-color: transparent;&quot;&gt;There are 1,792 steps in the Eiffel Tower&lt;/span&gt;" style="text;html=1;align=center;verticalAlign=middle;resizable=0;points=[];autosize=1;strokeColor=none;fillColor=none;" vertex="1" parent="2">
                    <mxGeometry x="45" y="240" width="420" height="40" as="geometry"/>
                </mxCell>
                <mxCell id="9" value="&lt;div&gt;&lt;font style=&quot;color: rgb(63, 63, 63); scrollbar-color: rgb(226, 226, 226) rgb(251, 251, 251);&quot;&gt;&lt;font style=&quot;color: rgb(63, 63, 63); scrollbar-color: rgb(226, 226, 226) rgb(251, 251, 251); font-size: 28px;&quot;&gt;Your random useless fact is:&amp;nbsp;&lt;/font&gt;&lt;/font&gt;&lt;/div&gt;" style="text;html=1;align=center;verticalAlign=middle;resizable=0;points=[];autosize=1;strokeColor=none;fillColor=none;" vertex="1" parent="2">
                    <mxGeometry x="45" y="145" width="380" height="50" as="geometry"/>
                </mxCell>
            </root>
        </mxGraphModel>
    </diagram>
</mxfile>